<svg width="16" height="24" viewBox="0 0 16 24" fill="none" xmlns="http://www.w3.org/2000/svg">
<rect width="16" height="24" fill="#E8E8E8"/>
<rect x="-1223" y="-52" width="1440" height="1603" fill="white"/>
<g filter="url(#filter0_d)">
<path d="M-16 -6C-16 -7.10457 -15.1046 -8 -14 -8H79C80.1046 -8 81 -7.10457 81 -6V30C81 31.1046 80.1046 32 79 32H-14C-15.1046 32 -16 31.1046 -16 30V-6Z" fill="white"/>
<g clip-path="url(#clip0)">
<path d="M14.4201 14.9672H5.11537L5.58256 14.0156L13.3451 14.0016C13.6076 14.0016 13.8326 13.8141 13.8794 13.5547L14.9544 7.5375C14.9826 7.37969 14.9404 7.21719 14.8372 7.09375C14.7863 7.033 14.7227 6.98407 14.6509 6.95034C14.5792 6.91661 14.5009 6.8989 14.4216 6.89844L4.54662 6.86562L4.46224 6.46875C4.40912 6.21562 4.18099 6.03125 3.92162 6.03125H1.50756C1.36127 6.03125 1.22098 6.08936 1.11754 6.1928C1.0141 6.29624 0.955994 6.43653 0.955994 6.58281C0.955994 6.7291 1.0141 6.86939 1.11754 6.97283C1.22098 7.07626 1.36127 7.13438 1.50756 7.13438H3.47474L3.84349 8.8875L4.75131 13.2828L3.58256 15.1906C3.52186 15.2725 3.4853 15.3698 3.47702 15.4714C3.46874 15.573 3.48906 15.675 3.53568 15.7656C3.62943 15.9516 3.81849 16.0688 4.02787 16.0688H5.00912C4.79993 16.3466 4.68694 16.685 4.68724 17.0328C4.68724 17.9172 5.40599 18.6359 6.29037 18.6359C7.17474 18.6359 7.89349 17.9172 7.89349 17.0328C7.89349 16.6844 7.77787 16.3453 7.57162 16.0688H10.0888C9.87962 16.3466 9.76662 16.685 9.76693 17.0328C9.76693 17.9172 10.4857 18.6359 11.3701 18.6359C12.2544 18.6359 12.9732 17.9172 12.9732 17.0328C12.9732 16.6844 12.8576 16.3453 12.6513 16.0688H14.4216C14.7247 16.0688 14.9732 15.8219 14.9732 15.5172C14.9723 15.3711 14.9136 15.2312 14.81 15.1282C14.7064 15.0251 14.5662 14.9673 14.4201 14.9672V14.9672ZM4.77631 7.95312L13.7732 7.98281L12.8919 12.9172L5.82474 12.9297L4.77631 7.95312ZM6.29037 17.5266C6.01849 17.5266 5.79662 17.3047 5.79662 17.0328C5.79662 16.7609 6.01849 16.5391 6.29037 16.5391C6.56224 16.5391 6.78412 16.7609 6.78412 17.0328C6.78412 17.1638 6.7321 17.2894 6.6395 17.3819C6.54691 17.4745 6.42132 17.5266 6.29037 17.5266V17.5266ZM11.3701 17.5266C11.0982 17.5266 10.8763 17.3047 10.8763 17.0328C10.8763 16.7609 11.0982 16.5391 11.3701 16.5391C11.6419 16.5391 11.8638 16.7609 11.8638 17.0328C11.8638 17.1638 11.8118 17.2894 11.7192 17.3819C11.6266 17.4745 11.501 17.5266 11.3701 17.5266V17.5266Z" fill="#8C8C8C"/>
</g>
<path d="M-14 -7H79V-9H-14V-7ZM80 -6V30H82V-6H80ZM79 31H-14V33H79V31ZM-15 30V-6H-17V30H-15ZM-14 31C-14.5523 31 -15 30.5523 -15 30H-17C-17 31.6569 -15.6569 33 -14 33V31ZM80 30C80 30.5523 79.5523 31 79 31V33C80.6569 33 82 31.6569 82 30H80ZM79 -7C79.5523 -7 80 -6.55228 80 -6H82C82 -7.65685 80.6569 -9 79 -9V-7ZM-14 -9C-15.6569 -9 -17 -7.65685 -17 -6H-15C-15 -6.55228 -14.5523 -7 -14 -7V-9Z" fill="#D9D9D9"/>
</g>
<defs>
<filter id="filter0_d" x="-18" y="-10" width="101" height="44" filterUnits="userSpaceOnUse" color-interpolation-filters="sRGB">
<feFlood flood-opacity="0" result="BackgroundImageFix"/>
<feColorMatrix in="SourceAlpha" type="matrix" values="0 0 0 0 0 0 0 0 0 0 0 0 0 0 0 0 0 0 127 0"/>
<feOffset/>
<feGaussianBlur stdDeviation="1"/>
<feColorMatrix type="matrix" values="0 0 0 0 0 0 0 0 0 0 0 0 0 0 0 0 0 0 0.01 0"/>
<feBlend mode="normal" in2="BackgroundImageFix" result="effect1_dropShadow"/>
<feBlend mode="normal" in="SourceGraphic" in2="effect1_dropShadow" result="shape"/>
</filter>
<clipPath id="clip0">
<rect width="65" height="24" fill="white"/>
</clipPath>
</defs>
</svg>
